<svg xmlns="http://www.w3.org/2000/svg" version="1.1" viewBox="-5.0 -10.0 110.0 135.0">
 <g>
  <path d="m88.543 73.41c0.011719-4.043-2.2734-7.7422-5.8945-9.5391-1.5-0.74219-2.4453-2.2734-2.4414-3.9453v-14.094c-0.007812-7.4727-2.7852-14.68-7.7891-20.227-5.0078-5.5508-11.891-9.0469-19.324-9.8242 0.003906-0.054688 0.03125-0.10156 0.03125-0.15625v-6.25c0-1.7266-1.3984-3.125-3.125-3.125s-3.125 1.3984-3.125 3.125v6.25c0 0.054688 0.027344 0.10156 0.03125 0.15625-7.4336 0.77734-14.316 4.2734-19.324 9.8242-5.0039 5.5469-7.7812 12.754-7.7891 20.227v14.094c0.003906 1.6719-0.94141 3.2031-2.4375 3.9453-4.4297 2.2734-6.7422 7.2656-5.6172 12.113s5.4062 8.3047 10.383 8.3906h55.758c2.875-0.019531 5.6211-1.1914 7.625-3.2539s3.0977-4.8398 3.0391-7.7109zm-70.836 0c-0.007812-1.6758 0.94141-3.207 2.4414-3.9492 3.6211-1.793 5.9062-5.4922 5.8945-9.5352v-14.094c0-8.5586 4.5664-16.469 11.977-20.746 7.4141-4.2812 16.547-4.2812 23.961 0 7.4102 4.2773 11.977 12.188 11.977 20.746v14.094c-0.011719 4.043 2.2734 7.7422 5.8984 9.5352 1.5742 0.81641 2.5273 2.4805 2.4375 4.25-0.003907 2.4375-1.9766 4.4102-4.4141 4.4141h-55.758c-1.2188-0.019531-2.375-0.53516-3.207-1.4219-0.83203-0.89062-1.2656-2.0781-1.207-3.293z"/>
  <path d="m40.625 87.5c-1.7266 0-3.125 1.3984-3.125 3.125s1.3984 3.125 3.125 3.125h18.75c1.7266 0 3.125-1.3984 3.125-3.125s-1.3984-3.125-3.125-3.125z"/>
 </g></svg>