<svg xmlns="http://www.w3.org/2000/svg" version="1.1" viewBox="-5.0 -10.0 110.0 135.0">
 <path d="m85.77 73.875c7.6914-7.0078 11.531-17.297 10.305-27.629-1.2266-10.336-7.3672-19.441-16.484-24.453-9.1172-5.0156-20.098-5.3164-29.477-0.81641-33.848-15.844-62.844 27.668-35.926 52.945l-3.0312 3.0273c-0.87109 0.90234-1.1289 2.2344-0.64844 3.3945 0.48047 1.1602 1.6055 1.9219 2.8594 1.9414h22.523-0.003906c4.9102 0.023438 9.7578-1.0977 14.156-3.2734 4.375 2.1367 9.1797 3.2539 14.051 3.2734h22.539c1.2539-0.019531 2.3789-0.78125 2.8594-1.9414 0.48047-1.1602 0.22266-2.4922-0.64844-3.3945zm-49.703 2.1602h-15.152c0.70703-0.63281 1.0898-1.5508 1.0469-2.5-0.046876-0.94922-0.51563-1.8281-1.2773-2.3906-19.145-13.582-11.617-46.715 15.242-47.18 34.258 1.1172 34.375 50.77 0.14062 52.07zm43.18-4.8359c-0.73438 0.57422-1.1758 1.4492-1.207 2.3789-0.03125 0.93359 0.35156 1.832 1.0469 2.457-5.3125-0.20703-17.613 0.71484-22.562-1.1016 7.3047-6.207 11.52-15.305 11.535-24.891 0.011718-9.5859-4.1797-18.695-11.465-24.922 7.9258-2.3711 16.512-0.83203 23.125 4.1484 6.6094 4.9805 10.457 12.809 10.363 21.086-0.09375 8.2734-4.1172 16.012-10.836 20.844zm-43.34-18.074c-1.6836-0.058594-3.0156-1.4414-3.0156-3.125s1.332-3.0664 3.0156-3.125c1.6836 0.058594 3.0195 1.4414 3.0195 3.125s-1.3359 3.0664-3.0195 3.125zm11.988 0h0.003907c-1.6836-0.058594-3.0195-1.4414-3.0195-3.125s1.3359-3.0664 3.0195-3.125c1.6836 0.058594 3.0156 1.4414 3.0156 3.125s-1.332 3.0664-3.0156 3.125zm-23.977 0c-1.6836-0.058594-3.0195-1.4414-3.0195-3.125s1.3359-3.0664 3.0195-3.125c1.6836 0.058594 3.0195 1.4414 3.0195 3.125s-1.3359 3.0664-3.0195 3.125z"/></svg>