<svg xmlns="http://www.w3.org/2000/svg" xmlns:xlink="http://www.w3.org/1999/xlink" version="1.1" x="0px" y="0px" viewBox="0 0 32 40" style="enable-background:new 0 0 32 32;" xml:space="preserve"><style type="text/css">
	.st0{display:none;}
	.st1{display:inline;}
</style><g><path d="M18.354,28.924c-1.253,0.117-2.604,0.176-4.017,0.176c-3.066,0-6.113-0.29-9.063-0.864   c-0.468-0.088-0.807-0.507-0.807-0.995v-1.23c0-4.251,3.458-7.709,7.71-7.709h4.319c2.216,0,4.329,0.953,5.796,2.615   c0.329,0.372,0.899,0.408,1.271,0.079c0.372-0.329,0.408-0.897,0.079-1.271c-1.226-1.388-2.82-2.364-4.569-2.856   c2.325-1.541,3.863-4.179,3.863-7.17c0-4.741-3.857-8.599-8.599-8.599s-8.6,3.857-8.6,8.599c0,2.99,1.536,5.626,3.858,7.167   c-3.992,1.129-6.93,4.797-6.93,9.144v1.23c0,1.354,0.956,2.516,2.269,2.764c3.058,0.595,6.222,0.896,9.402,0.896   c1.468,0,2.875-0.063,4.183-0.184c0.495-0.047,0.859-0.485,0.813-0.979C19.288,29.242,18.851,28.896,18.354,28.924z M7.539,9.698   c0-3.749,3.05-6.798,6.799-6.798s6.798,3.049,6.798,6.798s-3.049,6.799-6.798,6.799S7.539,13.447,7.539,9.698z"/><path d="M28.556,21.226c-0.224-0.03-0.439-0.095-0.642-0.189c-0.605-0.284-0.925-0.77-1.061-1.032   c-0.191-0.37-0.606-0.563-1.013-0.461c-0.403,0.098-0.688,0.459-0.688,0.874v4.494c-0.411-0.197-0.867-0.317-1.353-0.317   c-1.738,0-3.153,1.415-3.153,3.153s1.415,3.153,3.153,3.153s3.153-1.415,3.153-3.153v-5.18c0.063,0.033,0.128,0.066,0.194,0.098   c0.367,0.173,0.758,0.288,1.161,0.344c0.493,0.068,0.946-0.277,1.015-0.769C29.392,21.747,29.048,21.293,28.556,21.226z    M23.801,29.1c-0.746,0-1.353-0.606-1.353-1.353s0.606-1.353,1.353-1.353s1.353,0.606,1.353,1.353S24.547,29.1,23.801,29.1z"/></g></svg>