      <svg
        xmlns="http://www.w3.org/2000/svg"
        data-name="Layer 1"
        viewBox="0 0 24 30"
        x="0px"
        y="0px"
      >
        <path
          d="m18.19,7.25h-2.19c-.33,0-.65-.13-.88-.37-.24-.23-.37-.55-.37-.88v-2.19l3.44,3.44Z"
          fill="#a3a3a3"
        />
        <path
          d="m16,8.75c-.74,0-1.43-.29-1.95-.81-.51-.51-.8-1.21-.8-1.94v-2.25h-6.25c-.33,0-.65.13-.88.37-.24.23-.37.55-.37.88v14c0,.33.13.65.37.88.23.24.55.37.88.37h10c.33,0,.65-.13.88-.37.24-.23.37-.55.37-.88v-10.25h-2.25Zm.4,4.86l-1.37,1.76.07,2.22c.01.25-.11.49-.31.64-.2.14-.46.18-.69.09l-2.1-.75-2.1.75c-.08.03-.17.05-.25.05-.16,0-.31-.05-.44-.14-.2-.15-.32-.39-.31-.64l.07-2.22-1.37-1.76c-.15-.2-.19-.46-.12-.7.08-.23.27-.41.51-.48l2.14-.63,1.25-1.84c.14-.21.37-.33.62-.33s.48.12.62.33l1.25,1.84,2.14.63c.24.07.43.25.51.48.07.24.03.5-.12.7Z"
          fill="#a3a3a3"
        />
        <path
          d="m13.68,14.66c-.11.14-.16.31-.16.48l.05,1.4-1.32-.47c-.16-.06-.34-.06-.5,0l-1.32.47.05-1.4c0-.17-.05-.34-.16-.48l-.86-1.1,1.34-.39c.17-.05.32-.15.41-.3l.79-1.15.78,1.15c.1.15.25.25.42.3l1.34.39-.86,1.1Z"
          fill="#a3a3a3"
        />
      </svg>